<mxfile host="65bd71144e">
    <diagram id="vCifF6vJfRn_3zVweyqM" name="Page-1">
        <mxGraphModel dx="1026" dy="790" grid="1" gridSize="10" guides="1" tooltips="1" connect="1" arrows="1" fold="1" page="1" pageScale="1" pageWidth="1169" pageHeight="827" math="0" shadow="0">
            <root>
                <mxCell id="0"/>
                <mxCell id="1" parent="0"/>
                <mxCell id="48" value="HTTPS" style="edgeStyle=none;rounded=1;sketch=0;orthogonalLoop=1;jettySize=auto;html=1;exitX=0.5;exitY=1;exitDx=0;exitDy=0;exitPerimeter=0;shadow=0;entryX=0.46;entryY=-0.04;entryDx=0;entryDy=0;entryPerimeter=0;" parent="1" source="14" edge="1" target="72">
                    <mxGeometry relative="1" as="geometry">
                        <mxPoint x="582" y="360" as="targetPoint"/>
                        <mxPoint x="582" y="330" as="sourcePoint"/>
                    </mxGeometry>
                </mxCell>
                <mxCell id="14" value="" style="fontColor=#0066CC;verticalAlign=top;verticalLabelPosition=bottom;labelPosition=center;align=center;html=1;outlineConnect=0;fillColor=#CCCCCC;strokeColor=#6881B3;gradientColor=none;gradientDirection=north;strokeWidth=2;shape=mxgraph.networks.firewall;" parent="1" vertex="1">
                    <mxGeometry x="552" y="260" width="60" height="50" as="geometry"/>
                </mxCell>
                <mxCell id="45" style="rounded=0;orthogonalLoop=1;jettySize=auto;html=1;exitX=0.5;exitY=1;exitDx=0;exitDy=0;exitPerimeter=0;entryX=0.5;entryY=0;entryDx=0;entryDy=0;entryPerimeter=0;" parent="1" source="25" target="14" edge="1">
                    <mxGeometry relative="1" as="geometry"/>
                </mxCell>
                <mxCell id="25" value="" style="aspect=fixed;pointerEvents=1;shadow=0;dashed=0;html=1;strokeColor=none;labelPosition=center;verticalLabelPosition=bottom;verticalAlign=top;align=center;fillColor=#00188D;shape=mxgraph.azure.cloud" parent="1" vertex="1">
                    <mxGeometry x="551" y="179" width="62.5" height="40" as="geometry"/>
                </mxCell>
                <mxCell id="26" value="" style="fontColor=#0066CC;verticalAlign=top;verticalLabelPosition=bottom;labelPosition=center;align=center;html=1;outlineConnect=0;fillColor=#CCCCCC;strokeColor=#6881B3;gradientColor=none;gradientDirection=north;strokeWidth=2;shape=mxgraph.networks.firewall;" parent="1" vertex="1">
                    <mxGeometry x="552" y="462" width="60" height="50" as="geometry"/>
                </mxCell>
                <mxCell id="44" value="Internet" style="text;html=1;strokeColor=none;fillColor=none;align=center;verticalAlign=middle;whiteSpace=wrap;rounded=0;" parent="1" vertex="1">
                    <mxGeometry x="627" y="194" width="40" height="20" as="geometry"/>
                </mxCell>
                <mxCell id="49" value="HTTP / HTTPS" style="edgeStyle=none;rounded=1;sketch=0;orthogonalLoop=1;jettySize=auto;html=1;exitX=0.54;exitY=0.98;exitDx=0;exitDy=0;exitPerimeter=0;entryX=0.5;entryY=0;entryDx=0;entryDy=0;entryPerimeter=0;shadow=0;" parent="1" source="72" target="26" edge="1">
                    <mxGeometry relative="1" as="geometry">
                        <mxPoint x="582" y="408" as="sourcePoint"/>
                    </mxGeometry>
                </mxCell>
                <mxCell id="72" value="" style="aspect=fixed;html=1;points=[];align=center;image;fontSize=12;image=img/lib/mscae/VM_Scale_Set.svg;" vertex="1" parent="1">
                    <mxGeometry x="557" y="350" width="50" height="50" as="geometry"/>
                </mxCell>
                <mxCell id="74" value="" style="aspect=fixed;html=1;points=[];align=center;image;fontSize=12;image=img/lib/mscae/VirtualMachineWindows.svg;" vertex="1" parent="1">
                    <mxGeometry x="480" y="550" width="50" height="46" as="geometry"/>
                </mxCell>
                <mxCell id="77" value="" style="aspect=fixed;html=1;points=[];align=center;image;fontSize=12;image=img/lib/mscae/VM_Linux.svg;" vertex="1" parent="1">
                    <mxGeometry x="650" y="550" width="50" height="46" as="geometry"/>
                </mxCell>
                <mxCell id="78" value="HTTP / HTTPS" style="edgeStyle=none;rounded=1;sketch=0;orthogonalLoop=1;jettySize=auto;html=1;exitX=1;exitY=1;exitDx=0;exitDy=0;exitPerimeter=0;entryX=0.5;entryY=-0.087;entryDx=0;entryDy=0;entryPerimeter=0;shadow=0;" edge="1" parent="1" source="26" target="77">
                    <mxGeometry relative="1" as="geometry">
                        <mxPoint x="594" y="409" as="sourcePoint"/>
                        <mxPoint x="592" y="472" as="targetPoint"/>
                    </mxGeometry>
                </mxCell>
                <mxCell id="79" value="HTTP / HTTPS" style="edgeStyle=none;rounded=1;sketch=0;orthogonalLoop=1;jettySize=auto;html=1;entryX=0.5;entryY=0.022;entryDx=0;entryDy=0;entryPerimeter=0;shadow=0;" edge="1" parent="1" target="74">
                    <mxGeometry relative="1" as="geometry">
                        <mxPoint x="550" y="510" as="sourcePoint"/>
                        <mxPoint x="685" y="555.998" as="targetPoint"/>
                    </mxGeometry>
                </mxCell>
                <mxCell id="80" value="Traefik VMs" style="text;html=1;strokeColor=none;fillColor=none;align=center;verticalAlign=middle;whiteSpace=wrap;rounded=0;" vertex="1" parent="1">
                    <mxGeometry x="613.5" y="365" width="90" height="20" as="geometry"/>
                </mxCell>
                <mxCell id="81" value="Web server" style="text;html=1;strokeColor=none;fillColor=none;align=center;verticalAlign=middle;whiteSpace=wrap;rounded=0;" vertex="1" parent="1">
                    <mxGeometry x="470" y="600" width="70" height="20" as="geometry"/>
                </mxCell>
                <mxCell id="82" value="Web server" style="text;html=1;strokeColor=none;fillColor=none;align=center;verticalAlign=middle;whiteSpace=wrap;rounded=0;" vertex="1" parent="1">
                    <mxGeometry x="640" y="600" width="70" height="20" as="geometry"/>
                </mxCell>
            </root>
        </mxGraphModel>
    </diagram>
</mxfile>